<svg width="150" height="70" viewBox="0 0 150 70" fill="none" xmlns="http://www.w3.org/2000/svg">
<path d="M123.657 70.0001C118.045 70.0001 113.699 68.2644 110.622 64.7931C107.604 61.3218 105.842 58.9477 106.095 49.5312V26.5287L114.269 28.3249L117.592 48.4539C117.592 52.2844 118.377 55.217 119.946 57.252C121.515 59.2869 123.989 60.3043 127.369 60.3043C130.567 60.3043 133.192 59.1672 135.244 56.8929C137.357 54.6185 138.413 51.4465 138.413 47.3766V24.394H150V68.9228H139.771L138.865 61.3816C137.477 64.0151 135.456 66.1098 132.8 67.6659C130.205 69.222 127.157 70.0001 123.657 70.0001Z" fill="#010101"/>
<path d="M0 64.697V1.79714H40.966V11.0524H11.601V28.6644H35.3467V37.7399H11.601V64.697H0Z" fill="#010101"/>
<path d="M55.9005 13.209C53.7858 13.209 52.0335 12.58 50.6438 11.322C49.3145 10.064 48.6499 8.4765 48.6499 6.55955C48.6499 4.64261 49.3145 3.08509 50.6438 1.88699C52.0335 0.628997 53.7858 0 55.9005 0C58.0153 0 59.7373 0.628997 61.0666 1.88699C62.4563 3.08509 63.1511 4.64261 63.1511 6.55955C63.1511 8.4765 62.4563 10.064 61.0666 11.322C59.7373 12.58 58.0153 13.209 55.9005 13.209ZM50.1 64.697V20.1279H61.701V64.697H50.1Z" fill="#010101"/>
<path d="M73.8097 64.697V20.1279H84.0512L84.9575 27.6759C86.3472 25.0401 88.3411 22.9435 90.9392 21.3859C93.5978 19.8284 96.7095 19.0497 100.274 19.0497C105.833 19.0497 110.153 20.7869 113.235 24.2614C116.316 27.7358 117.857 32.8277 117.857 39.537V47.9466H106.256V40.6153C106.256 36.7814 105.471 33.8461 103.9 31.8093C102.329 29.7726 99.8817 28.7542 96.5585 28.7542C93.2957 28.7542 90.6069 29.8924 88.4922 32.1688C86.4378 34.4451 85.4106 37.6201 85.4106 41.6936V64.697H73.8097Z" fill="#010101"/>
</svg>
