<svg width="152" height="100" viewBox="0 0 152 100" fill="none" xmlns="http://www.w3.org/2000/svg">
<path d="M1 18L1 90.5C1 94.9183 4.58172 98.5 9 98.5L143 98.5C147.418 98.5 151 94.9183 151 90.5V14.4921C151 10.0738 147.418 6.49213 143 6.49213L46.122 6.49213M1 18L1 6.49213V6.49213C1 3.45891 3.45891 1 6.49213 1H37.3186C39.4414 1 41.4772 1.84372 42.9777 3.34537L46.122 6.49213M1 18H38.122C42.5402 18 46.122 14.4183 46.122 10V6.49213" stroke="black" stroke-width="2"/>
<path d="M9 98.5C4.58172 98.5 1 94.9183 1 90.5L1 80.5L151 80.5V90.5C151 94.9183 147.418 98.5 143 98.5L9 98.5Z" fill="black" stroke="black" stroke-width="2"/>
</svg>
