<svg width="35" height="35" viewBox="0 0 35 35" fill="none" xmlns="http://www.w3.org/2000/svg">
<path d="M18 1C9.168 1 2 8.168 2 17C2 25.832 9.168 33 18 33C26.832 33 34 25.832 34 17C34 8.168 26.832 1 18 1ZM23.776 11.144C25.488 11.144 26.864 12.52 26.864 14.232C26.864 15.944 25.488 17.32 23.776 17.32C22.064 17.32 20.688 15.944 20.688 14.232C20.672 12.52 22.064 11.144 23.776 11.144ZM14.176 8.616C16.256 8.616 17.952 10.312 17.952 12.392C17.952 14.472 16.256 16.168 14.176 16.168C12.096 16.168 10.4 14.472 10.4 12.392C10.4 10.296 12.08 8.616 14.176 8.616ZM14.176 23.224V29.224C10.336 28.024 7.296 25.064 5.952 21.288C7.632 19.496 11.824 18.584 14.176 18.584C15.024 18.584 16.096 18.712 17.216 18.936C14.592 20.328 14.176 22.168 14.176 23.224ZM18 29.8C17.568 29.8 17.152 29.784 16.736 29.736V23.224C16.736 20.952 21.44 19.816 23.776 19.816C25.488 19.816 28.448 20.44 29.92 21.656C28.048 26.408 23.424 29.8 18 29.8Z" fill="#5551FF"/>
</svg>
