<svg width="151" height="100" viewBox="0 0 151 100" fill="none" xmlns="http://www.w3.org/2000/svg">
<path d="M1 18L1 90.5C1 94.9183 4.58172 98.5 9 98.5L142 98.5C146.418 98.5 150 94.9183 150 90.5V14.4921C150 10.0738 146.418 6.49213 142 6.49213L45.8211 6.49213M1 18L1 6.49213V6.49213C1 3.45891 3.45891 1 6.49213 1H37.0387C39.1708 1 41.2147 1.85109 42.7166 3.36433L45.8211 6.49213M1 18H37.8211C42.2394 18 45.8211 14.4183 45.8211 10V6.49213" stroke="#5551FF" stroke-width="2" stroke-dasharray="5 5"/>
<path d="M9 98.5C4.58172 98.5 1 94.9183 1 90.5L1 80.5L150 80.5V90.5C150 94.9183 146.418 98.5 142 98.5L9 98.5Z" fill="#5551FF" stroke="#5551FF" stroke-width="2"/>
<g clip-path="url(#clip0)">
<path d="M64.0002 48.1156V52.8844C64.0002 53.2434 64.2847 53.5347 64.6363 53.5347H73.2588V62.3496C73.2588 62.7091 73.5438 62.9999 73.8949 62.9999H78.5597C78.9107 62.9999 79.1958 62.7091 79.1958 62.3496V53.5347H87.8185C88.1699 53.5347 88.4546 53.2434 88.4546 52.8844V48.1156C88.4546 47.7565 88.1699 47.4653 87.8185 47.4653H79.1958V38.6503C79.1958 38.2909 78.9108 38 78.5597 38H73.8949C73.5438 38 73.2588 38.2909 73.2588 38.6503V47.4653H64.6363C64.2846 47.4653 64.0002 47.7565 64.0002 48.1156Z" fill="#5551FF"/>
</g>
<defs>
<clipPath id="clip0">
<rect width="24.4544" height="25" fill="white" transform="matrix(-1 0 0 1 88.4546 38)"/>
</clipPath>
</defs>
</svg>
