<svg width="26" height="25" viewBox="0 0 26 25" fill="none" xmlns="http://www.w3.org/2000/svg">
<g clip-path="url(#clip0)">
<path d="M0.00255775 10.1156V14.8844C0.00255775 15.2434 0.298975 15.5347 0.665245 15.5347H9.64808V24.3496C9.64808 24.7091 9.94494 24.9999 10.3108 24.9999H15.1705C15.5361 24.9999 15.8332 24.709 15.8332 24.3496V15.5347H24.8161C25.1822 15.5347 25.4788 15.2434 25.4788 14.8844V10.1156C25.4788 9.75651 25.1822 9.46528 24.8161 9.46528H15.8332V0.6503C15.8332 0.290877 15.5362 0 15.1705 0H10.3108C9.94494 0 9.64808 0.290877 9.64808 0.6503V9.46528H0.665245C0.298903 9.46528 0.00255775 9.75651 0.00255775 10.1156Z" fill="#5551FF"/>
</g>
<defs>
<clipPath id="clip0">
<rect width="25.4762" height="25" fill="white" transform="matrix(-1 0 0 1 25.4788 0)"/>
</clipPath>
</defs>
</svg>
