<svg width="19" height="19" viewBox="0 0 19 19" fill="none" xmlns="http://www.w3.org/2000/svg">
<g clip-path="url(#clip0)">
<path d="M15.139 6.08816L13.3855 4.33468C13.2535 4.20268 13.0394 4.20252 12.9072 4.33468L9.66603 7.57589L6.42483 4.33469C6.29265 4.2025 6.07861 4.20269 5.9466 4.33469L4.19312 6.08817C4.06119 6.2201 4.06096 6.43424 4.19312 6.5664L7.43432 9.8076L4.19308 13.0488C4.06097 13.1809 4.06108 13.3951 4.19308 13.5271L5.94656 15.2805C6.07859 15.4126 6.29268 15.4127 6.42479 15.2805L9.66603 12.0393L12.9073 15.2805C13.0394 15.4127 13.2535 15.4125 13.3855 15.2805L15.139 13.527C15.271 13.395 15.2711 13.181 15.139 13.0488L11.8977 9.8076L15.139 6.56639C15.2711 6.4342 15.271 6.22019 15.139 6.08816Z" fill="#F24E1E"/>
</g>
<defs>
<clipPath id="clip0">
<rect width="13" height="13" fill="white" transform="matrix(0.707107 -0.707107 -0.707107 -0.707107 9.66602 19)"/>
</clipPath>
</defs>
</svg>
