<svg width="314" height="235" viewBox="0 0 314 235" fill="none" xmlns="http://www.w3.org/2000/svg">
<path fill-rule="evenodd" clip-rule="evenodd" d="M312.474 7.64413C314 10.6389 314 14.5593 314 22.4V82.604C314 90.4448 314 94.3651 312.474 97.3599C311.132 99.9942 308.99 102.136 306.356 103.478C303.361 105.004 299.441 105.004 291.6 105.004H265.123C264.018 105.481 263.03 106.032 262.038 106.625C260.773 107.381 258.463 108.871 256.938 109.855C256.682 110.02 256.448 110.171 256.245 110.302C256.11 110.389 255.959 110.486 255.797 110.591C254.573 111.382 252.679 112.605 251.588 113.235C250.031 114.132 248.108 115.086 245.436 115.086C242.764 115.086 240.841 114.132 239.286 113.236C238.215 112.619 236.373 111.429 235.147 110.638C234.958 110.515 234.783 110.402 234.628 110.303C234.449 110.187 234.246 110.057 234.026 109.914C232.504 108.932 230.127 107.397 228.835 106.626C227.842 106.032 226.852 105.482 225.747 105.004H22.4C14.5593 105.004 10.6389 105.004 7.64413 103.478C5.00986 102.136 2.86813 99.9942 1.52591 97.3599C0 94.3651 0 90.4447 0 82.604V22.4C0 14.5593 0 10.6389 1.52591 7.64413C2.86813 5.00986 5.00986 2.86814 7.64413 1.52591C10.6389 0 14.5593 0 22.4 0H291.6C299.441 0 303.361 0 306.356 1.52591C308.99 2.86814 311.132 5.00986 312.474 7.64413Z" fill="#5551FF"/>
<rect width="14.1432" height="18.1817" rx="7.07161" transform="matrix(0.987924 -0.154941 0.266974 0.963704 19.0293 75)" fill="black"/>
<rect width="14.1432" height="18.1817" rx="7.07161" transform="matrix(0.987924 -0.154941 0.266974 0.963704 72.4248 66.6257)" fill="black"/>
<path d="M52.1981 91.9908C57.0379 95.2449 62.9912 93.3452 66.0634 89.8163" stroke="black" stroke-linecap="round" stroke-linejoin="round"/>
<path fill-rule="evenodd" clip-rule="evenodd" d="M7.35938 203.33C12.9099 209.984 19.9311 216.015 22.9936 216.033C25.9247 216.049 27.9099 222.735 30.7623 223.295C33.8435 223.899 35.8833 224.957 37.9357 226.201C39.4133 227.096 42.3158 229.005 43.729 229.927C44.8857 230.683 47.1499 232.177 48.3862 232.9C49.9424 233.809 51.8661 234.776 54.5379 234.776C57.2097 234.776 59.1325 233.809 60.6878 232.901C61.9241 232.178 64.1883 230.683 65.3459 229.928C66.7573 229.006 69.6598 227.097 71.1383 226.202C73.1942 224.957 75.2305 223.9 78.3108 223.295C81.1641 222.737 84.4456 222.712 87.3749 222.695C90.4382 222.678 93.4998 222.686 96.5622 222.686" fill="#3FE28D"/>
<path fill-rule="evenodd" clip-rule="evenodd" d="M312.474 127.334C314 130.329 314 134.249 314 142.09V203.704C314 211.545 314 215.465 312.474 218.46C311.132 221.094 308.99 223.236 306.356 224.578C303.361 226.104 299.441 226.104 291.6 226.104H22.4C14.5593 226.104 10.6389 226.104 7.64413 224.578C5.00986 223.236 2.86813 221.094 1.52591 218.46C0 215.465 0 211.545 0 203.704V142.09C0 134.249 0 130.329 1.52591 127.334C2.86813 124.7 5.00986 122.558 7.64413 121.216C10.6389 119.69 14.5593 119.69 22.4 119.69H291.6C292.385 119.69 293.132 119.69 293.841 119.691L193.613 119.692C194.902 119.693 196.191 119.695 197.481 119.699C201.792 119.713 206.621 119.733 210.82 120.179C215.353 120.663 218.35 121.509 221.376 122.504C223.276 123.13 226.775 124.374 229.015 125.171C229.339 125.286 229.637 125.392 229.901 125.485C230.129 125.566 230.386 125.658 230.665 125.757C232.47 126.399 235.18 127.363 236.756 127.864C239.045 128.59 241.875 129.364 245.807 129.364C249.739 129.364 252.57 128.59 254.86 127.863C256.467 127.352 259.253 126.361 261.055 125.719C261.294 125.634 261.515 125.555 261.714 125.485C262.013 125.379 262.357 125.257 262.733 125.123C264.978 124.325 268.378 123.117 270.24 122.504C273.26 121.508 276.263 120.662 280.797 120.179C284.995 119.731 289.823 119.712 294.137 119.699C294.452 119.698 294.767 119.697 295.082 119.696C300.674 119.729 303.841 119.934 306.356 121.216C308.99 122.558 311.132 124.7 312.474 127.334ZM193.613 119.692L184.018 119.692C185.077 119.692 186.137 119.692 187.197 119.691C189.335 119.69 191.474 119.69 193.613 119.692Z" fill="#3FE28D"/>
<rect width="14.0716" height="18.5718" rx="7.0358" transform="matrix(0.9798 0.199982 -0.331832 0.943339 37.3145 130.524)" fill="black"/>
<rect width="14.0716" height="18.5718" rx="7.0358" transform="matrix(0.979731 0.200176 -0.331511 0.943404 89.999 141.289)" fill="black"/>
<path d="M51.5496 157.631C54.9314 160.575 67.4401 163.973 65.6638 164.166C63.8876 164.359 55.5142 164.405 51.5496 164.404" stroke="black" stroke-linecap="round"/>
</svg>
